<svg width="532" height="494" viewBox="0 0 532 494" fill="none" xmlns="http://www.w3.org/2000/svg">
<g opacity="0.4" filter="url(#filter0_d)">
<circle cx="283" cy="212" r="120" fill="url(#paint0_linear)"/>
<circle cx="283" cy="212" r="119.5" stroke="#EFF0F6" stroke-opacity="0.1"/>
</g>
<g filter="url(#filter1_d)">
<path d="M372.452 81.2154V91.999L351.223 83.5103C350.172 83.0375 349.298 82.3997 348.672 81.6489C348.045 80.8981 347.684 80.0555 347.617 79.1898V70.6074L372.452 81.2154Z" fill="#2F80ED"/>
<path d="M419.228 97.7241V107.794C419.228 109.386 417.62 110.03 415.622 109.234L392.734 100.101V89.3057L419.228 97.7241Z" fill="#2F80ED"/>
<path d="M146.689 178.607L149.5 175.633L261.23 246.528L266.427 246.013L266.342 246.107C265.802 246.738 264.925 247.199 263.9 247.389C262.875 247.579 261.783 247.485 260.857 247.125L246.062 241.271C244.733 240.735 243.49 240.103 242.354 239.386L146.689 178.607Z" fill="#2F80ED"/>
<path d="M372.452 81.2148L392.733 89.3055L264.362 237.688L246.756 226.518L372.452 81.2148Z" fill="#56CCF2"/>
<path d="M392.735 89.3057V100.089L266.497 246.013C266.26 246.328 265.917 246.599 265.499 246.804C265.08 247.009 264.597 247.142 264.089 247.192C263.581 247.243 263.064 247.209 262.579 247.093C262.094 246.978 261.655 246.784 261.3 246.529L152.515 177.577C152.15 177.321 151.704 177.127 151.213 177.01C150.721 176.893 150.197 176.855 149.682 176.901C149.166 176.946 148.673 177.073 148.239 177.271C147.806 177.47 147.444 177.734 147.183 178.045L48.1153 282.743L36.8746 294.616C36.3404 295.173 35.5455 295.586 34.623 295.787V285.003L36.9084 283.832L48.1322 271.96L147.217 167.238C147.48 166.928 147.842 166.664 148.276 166.467C148.71 166.27 149.204 166.144 149.72 166.1C150.236 166.056 150.759 166.094 151.249 166.212C151.74 166.331 152.185 166.525 152.549 166.781L261.283 235.733C261.64 235.987 262.079 236.178 262.563 236.292C263.048 236.406 263.564 236.439 264.071 236.389C264.577 236.339 265.059 236.206 265.478 236.003C265.897 235.799 266.24 235.531 266.48 235.218L392.735 89.3057Z" fill="#2D9CDB"/>
<path d="M34.6386 285.05V295.834C34.0511 295.975 33.4265 296.027 32.8073 295.987C32.188 295.947 31.5886 295.814 31.0497 295.6L19.5889 291.033H19.4873C18.4694 290.555 17.6251 289.92 17.0202 289.179C16.4153 288.438 16.0662 287.61 16 286.76V277.568L34.6386 285.05Z" fill="#2F80ED"/>
<path d="M36.9241 283.844L147.232 167.25C147.719 166.735 148.47 166.366 149.334 166.219C150.197 166.071 151.11 166.155 151.888 166.453L132.775 158.257C131.827 157.853 130.69 157.72 129.603 157.886C128.515 158.052 127.565 158.505 126.951 159.147L16.6603 275.753C16.3626 276.061 16.1601 276.408 16.0653 276.773C15.9705 277.138 15.9856 277.512 16.1095 277.873C16.2335 278.233 16.4636 278.572 16.7856 278.868C17.1076 279.164 17.5145 279.411 17.9808 279.594L31.0498 284.816C32.0263 285.194 33.173 285.304 34.2616 285.124C35.3503 284.944 36.3008 284.487 36.9241 283.844Z" fill="#56CCF2"/>
<path d="M349.04 71.86L416.146 98.6609C418.143 99.4571 419.532 98.8249 419.176 97.2442L410.915 56.0183C410.878 55.6667 410.717 55.3266 410.448 55.0273C410.179 54.7279 409.808 54.4783 409.369 54.2998C408.929 54.1213 408.434 54.0192 407.924 54.0025C407.415 53.9857 406.908 54.0547 406.446 54.2035L349.294 69.4246C347.195 69.9632 347.042 71.0638 349.04 71.86Z" fill="#56CCF2"/>
</g>
<defs>
<filter id="filter0_d" x="71" y="0" width="424" height="424" filterUnits="userSpaceOnUse" color-interpolation-filters="sRGB">
<feFlood flood-opacity="0" result="BackgroundImageFix"/>
<feColorMatrix in="SourceAlpha" type="matrix" values="0 0 0 0 0 0 0 0 0 0 0 0 0 0 0 0 0 0 127 0"/>
<feMorphology radius="24" operator="dilate" in="SourceAlpha" result="effect1_dropShadow"/>
<feOffset/>
<feGaussianBlur stdDeviation="34"/>
<feColorMatrix type="matrix" values="0 0 0 0 0.384314 0 0 0 0 0.368627 0 0 0 0 0.482353 0 0 0 0.68 0"/>
<feBlend mode="normal" in2="BackgroundImageFix" result="effect1_dropShadow"/>
<feBlend mode="normal" in="SourceGraphic" in2="effect1_dropShadow" result="shape"/>
</filter>
<filter id="filter1_d" x="0" y="54" width="531.232" height="466" filterUnits="userSpaceOnUse" color-interpolation-filters="sRGB">
<feFlood flood-opacity="0" result="BackgroundImageFix"/>
<feColorMatrix in="SourceAlpha" type="matrix" values="0 0 0 0 0 0 0 0 0 0 0 0 0 0 0 0 0 0 127 0"/>
<feOffset dx="48" dy="160"/>
<feGaussianBlur stdDeviation="32"/>
<feColorMatrix type="matrix" values="0 0 0 0 0.255 0 0 0 0 0.244687 0 0 0 0 0.3375 0 0 0 0.95 0"/>
<feBlend mode="normal" in2="BackgroundImageFix" result="effect1_dropShadow"/>
<feBlend mode="normal" in="SourceGraphic" in2="effect1_dropShadow" result="shape"/>
</filter>
<linearGradient id="paint0_linear" x1="163" y1="177.294" x2="257.47" y2="362.312" gradientUnits="userSpaceOnUse">
<stop stop-color="#62607D"/>
<stop offset="1" stop-color="#575A75"/>
</linearGradient>
</defs>
</svg>
